<?xml version="1.0" encoding="UTF-8"?>
<!-- Generator: Adobe Illustrator 15.0.0, SVG Export Plug-In . SVG Version: 6.00 Build 0)  -->
<!DOCTYPE svg PUBLIC "-//W3C//DTD SVG 1.1//EN" "http://www.w3.org/Graphics/SVG/1.1/DTD/svg11.dtd">
<svg version="1.1" xmlns="http://www.w3.org/2000/svg" xmlns:xlink="http://www.w3.org/1999/xlink" x="0px" y="0px" width="454.477px" height="85.496px" viewBox="0 0 454.477 85.496" enable-background="new 0 0 454.477 85.496" xml:space="preserve">
<g id="Layer_1">
	<g id="Layer_2">
	</g>
	<path fill="#D70911" d="M247.75,20.464c-3.722,0-7.52,2.854-7.36,8.714h-0.528v-8.094h-11.305l0.03,48.026l12.34-0.01   l-0.019-29.112c0-4.148,1.498-6.006,3.284-7.066c1.957-1.162,5.021-1.298,7.331-0.441V20.963   C250.558,20.621,249.374,20.464,247.75,20.464z"/>
	<path fill="#D70911" d="M196.499,59.398c-0.66,0.179-1.877,0.23-2.769,0.23c-1.481,0-2.207-0.808-2.207-2.276l-0.019-28.216h5.491   v-8.053h-5.497l-0.006-8.839l-12.343,0.011l0.006,8.828h-3.076v8.053h3.081l0.02,31.362c0,0.583,0.082,2.114,0.228,2.874   c0.654,3.389,2.664,6.621,9.083,6.621c2.853,0,6.228-0.619,8.788-1.173L196.499,59.398z"/>
	<path fill="#D70911" d="M34.718,54.825L34.71,41.346H22.143l-0.004,16.503c0.001,1.857-0.221,3.166-1.805,3.167   c-1.67,0.002-1.808-1.269-1.81-3.163V18.291c-0.001-1.857,0.22-3.166,1.805-3.167c1.67-0.001,1.808,1.27,1.81,3.163v15.979h12.556   V21.351C34.687,10.496,30.044,6.086,20.318,6.086c-9.727,0-14.369,4.41-14.377,15.265l0.023,33.475   C5.972,65.68,10.614,70.09,20.341,70.09S34.709,65.68,34.718,54.825z"/>
	<path fill="#D70911" d="M37.582,54.663V35.611c-0.008-9.631,3.885-15.445,14.093-15.455c10.209-0.008,14.111,5.797,14.119,15.432   v19.05c0.008,9.633-3.872,15.446-14.08,15.455C41.505,70.103,37.589,64.296,37.582,54.663z M53.52,61.402l-0.006-32.645   c0-0.09,0.017-0.221-0.02-0.369c-0.13-0.854-0.877-1.508-1.78-1.508l0,0c-0.897,0-1.641,0.646-1.777,1.491   c-0.027,0.126-0.022,0.291-0.022,0.386v32.645c0,0.108-0.01,0.255,0.013,0.409c0.107,0.877,0.872,1.558,1.792,1.558l0,0   c0.915,0,1.671-0.673,1.785-1.543C53.531,61.687,53.52,61.48,53.52,61.402z"/>
	<path fill="#D70911" d="M358.987,64.86c1.022,2.607,3.236,4.964,7.229,4.964c3.592,0,6.644-2.184,7.702-5.633h0.371l0.003,4.893   h12.344V6.117l-12.389,0.012l0.013,19.714h-0.347c-1.059-3.45-4.111-5.633-7.703-5.633c-3.992,0-6.206,2.356-7.229,4.964   c-0.422,1.074-0.62,2.609-0.62,3.805v32.077C358.361,62.251,358.566,63.785,358.987,64.86z M370.667,29.73   c0.114-0.871,0.87-1.543,1.785-1.543c0.92,0,1.686,0.68,1.793,1.557c0.017,0.115,0.016,0.221,0.014,0.314l-0.001,29.908   c0,0.095,0.005,0.26-0.022,0.385c-0.136,0.846-0.88,1.492-1.777,1.492c-0.903,0-1.65-0.653-1.78-1.508   c-0.037-0.148-0.02-0.279-0.02-0.369l-0.007-29.813C370.651,30.075,370.64,29.869,370.667,29.73z"/>
	<path fill="#D70911" d="M143.025,25.308c-1.022-2.607-3.236-4.964-7.228-4.964c-3.592,0-6.645,2.183-7.703,5.633h-0.371v-4.893   h-12.347v57.895l12.388-0.011l-0.011-14.644h0.346c1.058,3.45,4.111,5.634,7.703,5.634c3.992,0,6.206-2.356,7.228-4.964   c0.421-1.075,0.621-2.609,0.621-3.805V29.112C143.652,27.917,143.447,26.382,143.025,25.308z M131.346,60.438   c-0.114,0.871-0.87,1.543-1.785,1.543c-0.92,0-1.685-0.68-1.792-1.557c-0.018-0.115-0.016-0.221-0.014-0.314l0.001-29.908   c0-0.096-0.005-0.26,0.022-0.386c0.136-0.845,0.88-1.492,1.778-1.492c0.903,0,1.65,0.654,1.78,1.508   c0.037,0.149,0.02,0.28,0.02,0.37l0.006,29.813C131.361,60.092,131.372,60.299,131.346,60.438z"/>
	<path fill="#D70911" d="M436.213,30.396l0.005,38.715h12.126V29.66c0-1.195-0.205-3.438-0.626-4.512   c-1.022-2.607-3.002-4.965-6.994-4.965c-3.863,0-6.878,2.184-7.937,5.634h-0.522l-0.002-4.733h-12.022V69.11l12.373,0.001l0,0   V30.396c0-0.095-0.005-0.26,0.021-0.386c0.137-0.845,0.88-1.491,1.778-1.491l0,0c0.903,0,1.649,0.653,1.779,1.508   C436.231,30.175,436.213,30.307,436.213,30.396z"/>
	<path fill="#D70911" d="M158.737,60.506l-0.005-39.422h-12.126v39.45c0,1.195,0.205,3.438,0.626,4.513   c1.022,2.607,3.002,4.964,6.994,4.964c3.864,0,6.878-2.184,7.936-5.634h0.522l0.002,4.733h12.023V21.084h-12.373l0,0v39.422   c0,0.096,0.005,0.261-0.022,0.387c-0.137,0.845-0.88,1.491-1.778,1.491l0,0c-0.903,0-1.65-0.653-1.779-1.508   C158.72,60.728,158.737,60.596,158.737,60.506z"/>
	<path fill="#D70911" d="M84.598,69.11l12.101,0.001V30.396c0-0.095-0.005-0.26,0.022-0.386c0.136-0.845,0.88-1.491,1.778-1.491l0,0   c0.903,0,1.65,0.653,1.78,1.508c0.037,0.148,0.02,0.28,0.02,0.369l0.005,38.715h12.125V29.66c0-1.195-0.204-3.438-0.626-4.512   c-1.022-2.607-3.002-4.965-6.994-4.965c-3.864,0-6.879,2.184-7.937,5.634h-0.602c-0.061-0.248-0.125-0.48-0.199-0.669   c-1.023-2.607-3.25-4.965-7.242-4.965c-3.864,0-6.879,2.184-7.937,5.634h-0.249l-0.003-4.733H68.62V69.11l12.373,0.001l0,0V30.396   c0-0.095-0.005-0.26,0.022-0.386c0.136-0.845,0.88-1.491,1.777-1.491l0,0c0.903,0,1.65,0.653,1.78,1.508   c0.037,0.148,0.02,0.28,0.02,0.369L84.598,69.11"/>
	<path fill="#D70911" d="M213.24,28.703v12.366h-3.59l-0.009-12.364c0-0.095-0.005-0.26,0.022-0.385   c0.136-0.846,0.88-1.492,1.777-1.492l0,0c0.903,0,1.65,0.653,1.78,1.508C213.257,28.484,213.24,28.613,213.24,28.703z    M213.261,50.605v10.884c0,0.096,0.004,0.26-0.022,0.386c-0.136,0.846-0.88,1.492-1.777,1.492l0,0c-0.903,0-1.65-0.653-1.781-1.508   c-0.037-0.149-0.02-0.277-0.02-0.367V47.82h15.815V35.613c0.007-9.632-3.875-15.446-14.083-15.455   c-10.208-0.008-14.101,5.823-14.093,15.455l0.014,19.014c0.007,9.634,3.91,15.44,14.117,15.431   c10.21-0.009,14.107-5.823,14.1-15.456l-0.001-3.996H213.261z"/>
	<path fill="#D70911" d="M343.173,28.655v12.414h-3.59l-0.01-12.411c0-0.096-0.004-0.26,0.022-0.386   c0.136-0.845,0.88-1.492,1.778-1.492l0,0c0.903,0,1.649,0.653,1.78,1.508C343.19,28.438,343.173,28.566,343.173,28.655z    M343.194,50.605v10.884c0,0.096,0.006,0.26-0.022,0.386c-0.137,0.846-0.88,1.492-1.777,1.492l0,0c-0.902,0-1.65-0.653-1.78-1.508   c-0.037-0.149-0.021-0.277-0.021-0.367V47.82h15.813V35.566c0.007-9.633-3.873-15.447-14.081-15.455   c-10.207-0.009-14.1,5.822-14.093,15.455l0.014,19.061c0.008,9.634,3.911,15.44,14.118,15.431   c10.21-0.009,14.104-5.823,14.097-15.456l-0.001-3.996H343.194z"/>
	<path fill="#D70911" d="M405.227,28.655v12.414h-3.59l-0.01-12.411c0-0.096-0.005-0.26,0.022-0.386   c0.136-0.845,0.88-1.492,1.778-1.492l0,0c0.902,0,1.649,0.653,1.779,1.508C405.245,28.438,405.227,28.566,405.227,28.655z    M405.249,50.605v10.884c0,0.096,0.005,0.26-0.022,0.386c-0.137,0.846-0.88,1.492-1.777,1.492l0,0c-0.902,0-1.65-0.653-1.78-1.508   c-0.036-0.149-0.02-0.277-0.02-0.367V47.82h15.812V35.566c0.007-9.633-3.873-15.447-14.08-15.455   c-10.207-0.009-14.101,5.822-14.093,15.455l0.013,19.061c0.009,9.634,3.911,15.44,14.118,15.431   c10.21-0.009,14.104-5.823,14.097-15.456l-0.001-3.996H405.249z"/>
	<polygon fill="#D70911" points="316.295,21.084 315.276,40.171 314.807,53.363 314.453,53.363 313.578,40.179 311.877,21.084    299.957,21.084 298.26,40.125 297.381,53.362 297.027,53.362 296.556,40.118 295.538,21.084 284.446,21.084 289.497,69.11    303.211,69.11 304.164,56.951 304.932,43.87 305.286,43.87 306.053,56.943 307.007,69.11 321.44,69.11 326.492,21.084  "/>
	<path fill="#D70911" d="M253.764,20.466l0.002,12.06c0,3.252,0.995,5.31,3.172,6.404c2.421,1.219,9.562,4.655,11.63,5.71   c0.544,0.278,1.357,1.138,1.357,1.872c0,0.733,0,12.633,0,12.633c0,0.096,0.004,0.261-0.022,0.387   c-0.135,0.845-0.868,1.491-1.765,1.491l0,0c-0.903,0-1.651-0.653-1.781-1.508c-0.037-0.148-0.037-0.277-0.037-0.367V44.898h-12.563   V55.71c0.009,10.854,4.652,14.38,14.378,14.38s14.368-3.525,14.377-14.38l-0.002-13.345c0-2.709-0.941-4.553-3.198-5.696   c-3.303-1.676-8.572-4.349-11.63-5.798c-1.037-0.492-1.357-1.176-1.357-2.084V17.002c0-0.095-0.005-0.26,0.022-0.385   c0.136-0.846,0.886-1.492,1.784-1.492l0,0c0.903,0,1.65,0.653,1.78,1.508c0.038,0.148,0.02,0.277,0.02,0.367v13.576l12.588-0.008   V20.466c-0.009-10.854-4.652-14.38-14.378-14.38S253.772,9.611,253.764,20.466z"/>
</g>
<g id="Layer_4">
</g>
</svg>